<?xml version="1.0" encoding="iso-8859-1"?>
<!-- Generator: Adobe Illustrator 19.0.0, SVG Export Plug-In . SVG Version: 6.00 Build 0)  -->
<svg version="1.1" id="Layer_1" xmlns="http://www.w3.org/2000/svg" xmlns:xlink="http://www.w3.org/1999/xlink" x="0px" y="0px"
	 viewBox="0 0 470 470" style="enable-background:new 0 0 470 470;" xml:space="preserve">
<g>
	<g>
		<g>
			<path d="M462.5,310.485c4.142,0,7.5-3.358,7.5-7.5c0-4.142-3.358-7.5-7.5-7.5H440v-15h22.5c4.142,0,7.5-3.358,7.5-7.5
				c0-4.142-3.358-7.5-7.5-7.5h-22.927c-3.744-33.702-32.39-60-67.073-60h-15V75h2.5c4.142,0,7.5-3.358,7.5-7.5
				c0-4.142-3.358-7.5-7.5-7.5h-50c-4.142,0-7.5,3.358-7.5,7.5c0,4.142,3.358,7.5,7.5,7.5h2.5v107.985c0,4.142,3.358,7.5,7.5,7.5
				c4.142,0,7.5-3.358,7.5-7.5V135h15v70.485h-65V75h2.5c4.142,0,7.5-3.358,7.5-7.5c0-4.142-3.358-7.5-7.5-7.5h-50
				c-4.142,0-7.5,3.358-7.5,7.5c0,4.142,3.358,7.5,7.5,7.5h2.5v107.985c0,4.142,3.358,7.5,7.5,7.5c4.142,0,7.5-3.358,7.5-7.5V135h15
				v70.485h-65V15h2.5c4.142,0,7.5-3.358,7.5-7.5S204.142,0,200,0h-50c-4.142,0-7.5,3.358-7.5,7.5s3.358,7.5,7.5,7.5h2.5v167.985
				c0,4.142,3.358,7.5,7.5,7.5c4.142,0,7.5-3.358,7.5-7.5V135h15v70.485h-65.308l-2.698-64.3C114.325,137.169,111.02,134,107,134
				h-4.5V91.5c0-4.142-3.358-7.5-7.5-7.5c-4.142,0-7.5,3.358-7.5,7.5V134H83c-4.02,0-7.325,3.169-7.494,7.186l-2.698,64.3H67.5
				c-37.22,0-67.5,30.28-67.5,67.5V332.5c0,4.114,3.313,7.459,7.427,7.5L10,340.024V455H7.5c-4.142,0-7.5,3.358-7.5,7.5
				c0,4.142,3.358,7.5,7.5,7.5h50c4.142,0,7.5-3.358,7.5-7.5c0-4.142-3.358-7.5-7.5-7.5H55V340.461l2.427,0.023
				c2.013,0.035,3.928-0.762,5.35-2.17C64.2,336.906,65,334.987,65,332.985v-30c0-12.407,10.093-22.5,22.5-22.5h40
				c12.407,0,22.5,10.093,22.5,22.5v60c0,37.22,30.28,67.5,67.5,67.5h155c34.684,0,63.329-26.298,67.073-60H462.5
				c4.142,0,7.5-3.358,7.5-7.5c0-4.142-3.358-7.5-7.5-7.5H440v-15h22.5c4.142,0,7.5-3.358,7.5-7.5c0-4.142-3.358-7.5-7.5-7.5H440
				v-15H462.5z M327.5,120V75h15v45H327.5z M247.5,120V75h15v45H247.5z M167.5,15h15v45h-15V15z M167.5,120V75h15v45H167.5z
				 M90.192,149h9.616l2.37,56.485H87.822L90.192,149z M40,455H25V340.17l15,0.146V455z M50,325.412l-0.067-0.001
				C49.169,325.149,48.353,325,47.5,325c-0.806,0-1.58,0.13-2.307,0.365l-26.469-0.257c-0.4-0.065-0.806-0.108-1.224-0.108
				c-0.367,0-0.724,0.035-1.077,0.086L15,325.072v-14.999l35,0.34V325.412z M425,362.986c0,28.948-23.551,52.499-52.5,52.499h-155
				c-28.949,0-52.5-23.551-52.5-52.5v-60c0-20.678-16.822-37.5-37.5-37.5h-40c-18.087,0-33.223,12.871-36.733,29.935L15,295.073
				v-22.087c0-28.949,23.551-52.5,52.5-52.5h305c28.949,0,52.5,23.551,52.5,52.5V362.986z"/>
			<circle cx="376.116" cy="330.668" r="7.5"/>
			<circle cx="346.116" cy="360.668" r="7.5"/>
		</g>
	</g>
</g>
<g>
</g>
<g>
</g>
<g>
</g>
<g>
</g>
<g>
</g>
<g>
</g>
<g>
</g>
<g>
</g>
<g>
</g>
<g>
</g>
<g>
</g>
<g>
</g>
<g>
</g>
<g>
</g>
<g>
</g>
</svg>
