<?xml version="1.0" encoding="iso-8859-1"?>
<!-- Generator: Adobe Illustrator 19.0.0, SVG Export Plug-In . SVG Version: 6.00 Build 0)  -->
<svg version="1.1" id="Layer_1" xmlns="http://www.w3.org/2000/svg" xmlns:xlink="http://www.w3.org/1999/xlink" x="0px" y="0px"
	 viewBox="0 0 470 470" style="enable-background:new 0 0 470 470;" xml:space="preserve">
<g>
	<g>
		<g>
			<path d="M177.5,127.5h105c4.143,0,7.5-3.357,7.5-7.5V90c0-4.143-3.357-7.5-7.5-7.5h-105c-4.143,0-7.5,3.357-7.5,7.5v30
				C170,124.143,173.357,127.5,177.5,127.5z M185,97.5h90v15h-90V97.5z"/>
			<path d="M177.5,157.5h105c4.143,0,7.5-3.357,7.5-7.5s-3.357-7.5-7.5-7.5h-105c-4.143,0-7.5,3.357-7.5,7.5
				S173.357,157.5,177.5,157.5z"/>
			<path d="M327.5,127.5c12.406,0,22.5-10.094,22.5-22.5s-10.094-22.5-22.5-22.5S305,92.594,305,105S315.094,127.5,327.5,127.5z
				 M327.5,97.5c4.136,0,7.5,3.364,7.5,7.5s-3.364,7.5-7.5,7.5s-7.5-3.364-7.5-7.5S323.364,97.5,327.5,97.5z"/>
			<path d="M387.5,127.5c12.406,0,22.5-10.094,22.5-22.5s-10.094-22.5-22.5-22.5S365,92.594,365,105S375.094,127.5,387.5,127.5z
				 M387.5,97.5c4.136,0,7.5,3.364,7.5,7.5s-3.364,7.5-7.5,7.5s-7.5-3.364-7.5-7.5S383.364,97.5,387.5,97.5z"/>
			<circle cx="387.5" cy="150" r="7.5"/>
			<path d="M72.5,127.5c12.406,0,22.5-10.094,22.5-22.5S84.906,82.5,72.5,82.5S50,92.594,50,105S60.094,127.5,72.5,127.5z
				 M72.5,97.5c4.136,0,7.5,3.364,7.5,7.5s-3.364,7.5-7.5,7.5S65,109.136,65,105S68.364,97.5,72.5,97.5z"/>
			<circle cx="72.5" cy="150" r="7.5"/>
			<path d="M132.5,127.5c12.406,0,22.5-10.094,22.5-22.5s-10.094-22.5-22.5-22.5S110,92.594,110,105S120.094,127.5,132.5,127.5z
				 M132.5,97.5c4.136,0,7.5,3.364,7.5,7.5s-3.364,7.5-7.5,7.5s-7.5-3.364-7.5-7.5S128.364,97.5,132.5,97.5z"/>
			<path d="M462.5,52.5H7.5C3.357,52.5,0,55.857,0,60v350c0,4.143,3.357,7.5,7.5,7.5h455c4.143,0,7.5-3.357,7.5-7.5V60
				C470,55.857,466.643,52.5,462.5,52.5z M136,402.5H90v-20h7.5c4.143,0,7.5-3.357,7.5-7.5v-57.5h16V375c0,4.143,3.357,7.5,7.5,7.5
				h7.5V402.5z M75,367.5v-50h15v50H75z M197,402.5h-46v-20h7.5c4.143,0,7.5-3.357,7.5-7.5v-57.5h31V402.5z M136,367.5v-50h15v50
				H136z M258,402.5h-46v-85h31V375c0,4.143,3.357,7.5,7.5,7.5h7.5V402.5z M319,402.5h-46v-20h7.5c4.143,0,7.5-3.357,7.5-7.5v-57.5
				h16V375c0,4.143,3.357,7.5,7.5,7.5h7.5V402.5z M258,367.5v-50h15v50H258z M380,402.5h-46v-20h7.5c4.143,0,7.5-3.357,7.5-7.5
				v-57.5h16V375c0,4.143,3.357,7.5,7.5,7.5h7.5V402.5z M319,367.5v-50h15v50H319z M455,402.5h-60v-20h7.5
				c4.143,0,7.5-3.357,7.5-7.5v-57.5h22.5c4.143,0,7.5-3.357,7.5-7.5s-3.357-7.5-7.5-7.5h-395c-4.143,0-7.5,3.357-7.5,7.5
				s3.357,7.5,7.5,7.5H60V375c0,4.143,3.357,7.5,7.5,7.5H75v20H15v-115h440V402.5z M380,367.5v-50h15v50H380z M128.5,252.5h7.5v20
				H90v-20h7.5c4.143,0,7.5-3.357,7.5-7.5v-57.5h16V245C121,249.143,124.357,252.5,128.5,252.5z M90,237.5H75v-50h15V237.5z
				 M151,237.5h-15v-50h15V237.5z M158.5,252.5c4.143,0,7.5-3.357,7.5-7.5v-57.5h31v85h-46v-20H158.5z M250.5,252.5h7.5v20h-46v-85
				h31V245C243,249.143,246.357,252.5,250.5,252.5z M311.5,252.5h7.5v20h-46v-20h7.5c4.143,0,7.5-3.357,7.5-7.5v-57.5h16V245
				C304,249.143,307.357,252.5,311.5,252.5z M273,237.5h-15v-50h15V237.5z M372.5,252.5h7.5v20h-46v-20h7.5
				c4.143,0,7.5-3.357,7.5-7.5v-57.5h16V245C365,249.143,368.357,252.5,372.5,252.5z M334,237.5h-15v-50h15V237.5z M455,272.5h-60
				v-20h7.5c4.143,0,7.5-3.357,7.5-7.5v-57.5h22.5c4.143,0,7.5-3.357,7.5-7.5s-3.357-7.5-7.5-7.5h-395c-4.143,0-7.5,3.357-7.5,7.5
				s3.357,7.5,7.5,7.5H60V245c0,4.143,3.357,7.5,7.5,7.5H75v20H15v-205h440V272.5z M380,237.5v-50h15v50H380z"/>
		</g>
	</g>
</g>
<g>
</g>
<g>
</g>
<g>
</g>
<g>
</g>
<g>
</g>
<g>
</g>
<g>
</g>
<g>
</g>
<g>
</g>
<g>
</g>
<g>
</g>
<g>
</g>
<g>
</g>
<g>
</g>
<g>
</g>
</svg>
