<?xml version="1.0" encoding="iso-8859-1"?>
<!-- Generator: Adobe Illustrator 19.0.0, SVG Export Plug-In . SVG Version: 6.00 Build 0)  -->
<svg version="1.1" id="Layer_1" xmlns="http://www.w3.org/2000/svg" xmlns:xlink="http://www.w3.org/1999/xlink" x="0px" y="0px"
	 viewBox="0 0 470 470" style="enable-background:new 0 0 470 470;" xml:space="preserve">
<g>
	<g>
		<g>
			<path d="M146.667,40c5.538,0,10.372-3.024,12.971-7.5h171.195c4.143,0,7.5-3.357,7.5-7.5s-3.357-7.5-7.5-7.5H159.638
				c-2.598-4.476-7.433-7.5-12.971-7.5c-8.271,0-15,6.729-15,15S138.396,40,146.667,40z"/>
			<path d="M109.167,85H37.5c-4.143,0-7.5,3.357-7.5,7.5s3.357,7.5,7.5,7.5h71.667c4.143,0,7.5-3.357,7.5-7.5S113.31,85,109.167,85z
				"/>
			<path d="M360.833,100H432.5c4.143,0,7.5-3.357,7.5-7.5s-3.357-7.5-7.5-7.5h-71.667c-4.143,0-7.5,3.357-7.5,7.5
				S356.69,100,360.833,100z"/>
			<path d="M270.833,85h-71.666c-4.143,0-7.5,3.357-7.5,7.5s3.357,7.5,7.5,7.5h71.666c4.143,0,7.5-3.357,7.5-7.5
				S274.976,85,270.833,85z"/>
			<path d="M462.5,55H330.833c-4.143,0-7.5,3.357-7.5,7.5V115h-15V62.5c0-4.143-3.357-7.5-7.5-7.5H169.167
				c-4.143,0-7.5,3.357-7.5,7.5V115h-15V62.5c0-4.143-3.357-7.5-7.5-7.5H7.5C3.357,55,0,58.357,0,62.5v60c0,4.143,3.357,7.5,7.5,7.5
				H30v22.5c0,4.143,3.357,7.5,7.5,7.5h175v90H210c-4.143,0-7.5,3.357-7.5,7.5s3.357,7.5,7.5,7.5h2.5v45L109,448
				c-2.485,3.313-1.813,8.015,1.5,10.5c1.35,1.012,2.929,1.5,4.494,1.5c2.28,0,4.532-1.035,6.006-3l57.608-76.811l38.038,19.019
				c0.042,0.021,0.088,0.036,0.13,0.056c0.182,0.087,0.368,0.167,0.558,0.239c0.072,0.028,0.144,0.054,0.216,0.08
				c0.191,0.066,0.386,0.123,0.583,0.174c0.072,0.019,0.144,0.039,0.216,0.056c0.205,0.046,0.413,0.081,0.623,0.109
				c0.066,0.009,0.131,0.023,0.198,0.03c0.273,0.03,0.549,0.048,0.83,0.048h30c0.281,0,0.557-0.018,0.83-0.048
				c0.066-0.007,0.132-0.021,0.198-0.03c0.21-0.029,0.419-0.063,0.623-0.109c0.073-0.017,0.144-0.037,0.216-0.056
				c0.198-0.051,0.392-0.108,0.583-0.174c0.073-0.025,0.144-0.052,0.216-0.079c0.19-0.073,0.375-0.152,0.558-0.24
				c0.043-0.02,0.088-0.035,0.13-0.056l38.038-19.019L349,457c1.474,1.965,3.726,3,6.006,3c1.565,0,3.146-0.488,4.494-1.5
				c3.313-2.485,3.985-7.187,1.5-10.5L257.5,310V160h175c4.143,0,7.5-3.357,7.5-7.5V130h22.5c4.143,0,7.5-3.357,7.5-7.5v-60
				C470,58.357,466.643,55,462.5,55z M212.5,380.365l-24.745-12.372L212.5,335V380.365z M176.667,70h116.666v45H176.667V70z M15,115
				V70h116.667v45H15z M242.5,385h-15v-95h15V385z M242.5,275h-15v-35h15V275z M242.5,225h-15v-65h15V225z M282.244,367.993
				L257.5,380.365V335L282.244,367.993z M425,145H45v-15h380V145z M455,115H338.333V70H455V115z"/>
		</g>
	</g>
</g>
<g>
</g>
<g>
</g>
<g>
</g>
<g>
</g>
<g>
</g>
<g>
</g>
<g>
</g>
<g>
</g>
<g>
</g>
<g>
</g>
<g>
</g>
<g>
</g>
<g>
</g>
<g>
</g>
<g>
</g>
</svg>
