<?xml version="1.0" encoding="iso-8859-1"?>
<!-- Generator: Adobe Illustrator 19.0.0, SVG Export Plug-In . SVG Version: 6.00 Build 0)  -->
<svg version="1.1" id="Layer_1" xmlns="http://www.w3.org/2000/svg" xmlns:xlink="http://www.w3.org/1999/xlink" x="0px" y="0px"
	 viewBox="0 0 470 470" style="enable-background:new 0 0 470 470;" xml:space="preserve">
<g>
	<g>
		<g>
			<path d="M462.5,20.726H7.5c-4.143,0-7.5,3.358-7.5,7.5v308.547c0,4.142,3.357,7.5,7.5,7.5h100v35h-25v-12.5
				c0-4.142-3.357-7.5-7.5-7.5s-7.5,3.358-7.5,7.5v75c0,4.142,3.357,7.5,7.5,7.5h40c4.143,0,7.5-3.358,7.5-7.5v-97.5h55v35h-25
				v-12.5c0-4.142-3.357-7.5-7.5-7.5s-7.5,3.358-7.5,7.5v75c0,4.142,3.357,7.5,7.5,7.5h40c4.143,0,7.5-3.358,7.5-7.5v-97.5h55v35
				h-25v-12.5c0-4.142-3.357-7.5-7.5-7.5s-7.5,3.358-7.5,7.5v75c0,4.142,3.357,7.5,7.5,7.5h40c4.143,0,7.5-3.358,7.5-7.5v-97.5h55
				v35h-25v-12.5c0-4.142-3.357-7.5-7.5-7.5s-7.5,3.358-7.5,7.5v75c0,4.142,3.357,7.5,7.5,7.5h40c4.143,0,7.5-3.358,7.5-7.5v-97.5
				h55v35h-25v-12.5c0-4.142-3.357-7.5-7.5-7.5s-7.5,3.358-7.5,7.5v75c0,4.142,3.357,7.5,7.5,7.5h40c4.143,0,7.5-3.358,7.5-7.5
				v-97.5h60c4.143,0,7.5-3.358,7.5-7.5V28.226C470,24.083,466.643,20.726,462.5,20.726z M107.5,434.273h-25v-40h25V434.273z
				 M177.5,434.273h-25v-40h25V434.273z M247.5,434.273h-25v-40h25V434.273z M317.5,434.273h-25v-40h25V434.273z M387.5,434.273h-25
				v-40h25V434.273z M455,329.273H15V35.726h440V329.273z"/>
			<path d="M37.5,175c4.143,0,7.5-3.358,7.5-7.5v-8.665h15v8.665c0,4.142,3.357,7.5,7.5,7.5s7.5-3.358,7.5-7.5v-8.665h15v8.665
				c0,4.142,3.357,7.5,7.5,7.5s7.5-3.358,7.5-7.5v-8.665h22.5c1.451,0,2.871-0.421,4.088-1.212l16.968-11.029l193.721,5.778
				c4.174,0.147,7.597-3.133,7.721-7.273c0.123-4.14-3.133-7.597-7.273-7.72l-188.789-5.631V93.979l188.789-5.632
				c4.141-0.124,7.396-3.58,7.273-7.72c-0.125-4.14-3.563-7.414-7.721-7.273l-193.721,5.779l-16.968-11.03
				c-1.217-0.791-2.637-1.212-4.088-1.212H105v-8.665c0-4.142-3.357-7.5-7.5-7.5s-7.5,3.358-7.5,7.5v8.665H75v-8.665
				c0-4.142-3.357-7.5-7.5-7.5s-7.5,3.358-7.5,7.5v8.665H45v-8.665c0-4.142-3.357-7.5-7.5-7.5s-7.5,3.358-7.5,7.5V167.5
				C30,171.641,33.357,175,37.5,175z M45,81.891h80.276l13.658,8.878v44.187l-13.658,8.878H45V81.891z"/>
			<path d="M402.5,152.375h30c4.143,0,7.5-3.358,7.5-7.5V80.851c0-4.142-3.357-7.5-7.5-7.5h-30c-4.143,0-7.5,3.358-7.5,7.5v64.024
				C395,149.018,398.357,152.375,402.5,152.375z M410,88.351h15v49.024h-15V88.351z"/>
			<path d="M372.5,152.375c4.143,0,7.5-3.358,7.5-7.5V80.851c0-4.142-3.357-7.5-7.5-7.5s-7.5,3.358-7.5,7.5v64.024
				C365,149.018,368.357,152.375,372.5,152.375z"/>
			<path d="M37.5,314.273c4.143,0,7.5-3.358,7.5-7.5v-8.665h15v8.665c0,4.142,3.357,7.5,7.5,7.5s7.5-3.358,7.5-7.5v-8.665h15v8.665
				c0,4.142,3.357,7.5,7.5,7.5s7.5-3.358,7.5-7.5v-8.665h22.5c1.451,0,2.871-0.421,4.088-1.212l16.968-11.03l193.721,5.779
				c4.174,0.145,7.597-3.133,7.721-7.273c0.123-4.14-3.133-7.597-7.273-7.72l-188.789-5.632V233.25l188.789-5.631
				c4.141-0.124,7.396-3.58,7.273-7.72c-0.125-4.14-3.563-7.417-7.721-7.273l-193.721,5.778l-16.968-11.029
				c-1.217-0.791-2.637-1.212-4.088-1.212H105V197.5c0-4.142-3.357-7.5-7.5-7.5s-7.5,3.358-7.5,7.5v8.665H75V197.5
				c0-4.142-3.357-7.5-7.5-7.5s-7.5,3.358-7.5,7.5v8.665H45V197.5c0-4.142-3.357-7.5-7.5-7.5s-7.5,3.358-7.5,7.5v109.273
				C30,310.915,33.357,314.273,37.5,314.273z M45,221.164h80.276l13.658,8.878v44.187l-13.658,8.878H45V221.164z"/>
			<path d="M402.5,291.648h30c4.143,0,7.5-3.358,7.5-7.5v-64.024c0-4.142-3.357-7.5-7.5-7.5h-30c-4.143,0-7.5,3.358-7.5,7.5v64.024
				C395,288.29,398.357,291.648,402.5,291.648z M410,227.625h15v49.024h-15V227.625z"/>
			<path d="M372.5,291.648c4.143,0,7.5-3.358,7.5-7.5v-64.024c0-4.142-3.357-7.5-7.5-7.5s-7.5,3.358-7.5,7.5v64.024
				C365,288.29,368.357,291.648,372.5,291.648z"/>
		</g>
	</g>
</g>
<g>
</g>
<g>
</g>
<g>
</g>
<g>
</g>
<g>
</g>
<g>
</g>
<g>
</g>
<g>
</g>
<g>
</g>
<g>
</g>
<g>
</g>
<g>
</g>
<g>
</g>
<g>
</g>
<g>
</g>
</svg>
