<?xml version="1.0" encoding="iso-8859-1"?>
<!-- Generator: Adobe Illustrator 19.0.0, SVG Export Plug-In . SVG Version: 6.00 Build 0)  -->
<svg version="1.1" id="Layer_1" xmlns="http://www.w3.org/2000/svg" xmlns:xlink="http://www.w3.org/1999/xlink" x="0px" y="0px"
	 viewBox="0 0 470 470" style="enable-background:new 0 0 470 470;" xml:space="preserve">
<g>
	<g>
		<g>
			<circle cx="287.5" cy="350" r="7.5"/>
			<circle cx="317.5" cy="350" r="7.5"/>
			<circle cx="257.5" cy="350" r="7.5"/>
			<path d="M462.5,52.5c-4.142,0-7.5,3.358-7.5,7.5v282.5h-15V310c0-4.142-3.358-7.5-7.5-7.5h-290c-4.142,0-7.5,3.358-7.5,7.5v12.5
				H47.5C21.309,322.5,0,343.809,0,370c0,26.191,21.309,47.5,47.5,47.5c23.64,0,43.302-17.359,46.909-40H135V390
				c0,4.142,3.358,7.5,7.5,7.5H155v7.5c0,4.142,3.358,7.5,7.5,7.5c4.142,0,7.5-3.358,7.5-7.5v-7.5h235v7.5
				c0,4.142,3.358,7.5,7.5,7.5c4.142,0,7.5-3.358,7.5-7.5v-7.5h12.5c4.142,0,7.5-3.358,7.5-7.5v-32.5h22.5
				c4.142,0,7.5-3.358,7.5-7.5V60C470,55.858,466.642,52.5,462.5,52.5z M135,362.5H87.5c-4.142,0-7.5,3.358-7.5,7.5
				c0,17.92-14.58,32.5-32.5,32.5S15,387.92,15,370c0-17.92,14.58-32.5,32.5-32.5H135V362.5z M220,382.5h-70v-65h70V382.5z
				 M425,382.5h-70V340c0-4.142-3.358-7.5-7.5-7.5c-4.142,0-7.5,3.358-7.5,7.5v42.5H235v-65h190V382.5z"/>
		</g>
	</g>
</g>
<g>
</g>
<g>
</g>
<g>
</g>
<g>
</g>
<g>
</g>
<g>
</g>
<g>
</g>
<g>
</g>
<g>
</g>
<g>
</g>
<g>
</g>
<g>
</g>
<g>
</g>
<g>
</g>
<g>
</g>
</svg>
